/* XPM */
static const char * wx_icon_xpm[] = {
"32 32 349 2",
"  	c None",
". 	c #BBBBBB",
"+ 	c #DDDDDD",
"@ 	c #DEDFE1",
"# 	c #C1BCA5",
"$ 	c #E2C97A",
"% 	c #C8C8C8",
"& 	c #E1E1E1",
"* 	c #EFEFEF",
"= 	c #EEEEEE",
"- 	c #ECECEC",
"; 	c #E4E5E9",
"> 	c #CBC4AE",
", 	c #E0BD57",
"' 	c #CBA028",
") 	c #AFAFAF",
"! 	c #D1D1D1",
"~ 	c #E6E6E6",
"{ 	c #EDEDED",
"] 	c #EAEAEA",
"^ 	c #E4E4E4",
"/ 	c #DEDEDE",
"( 	c #DDDDDC",
"_ 	c #DADCE1",
": 	c #C4C1BA",
"< 	c #D4AA3E",
"[ 	c #A56D00",
"} 	c #B9B9B9",
"| 	c #D9D9D9",
"1 	c #E8E8E8",
"2 	c #E5E5E5",
"3 	c #E0E0E0",
"4 	c #DCDCDC",
"5 	c #D6D6D6",
"6 	c #D3D4D4",
"7 	c #D1D1CF",
"8 	c #D2D3D8",
"9 	c #BFBDBC",
"0 	c #8B7651",
"a 	c #DADADA",
"b 	c #D8D8D8",
"c 	c #D5D5D5",
"d 	c #D3D3D3",
"e 	c #D0D0D0",
"f 	c #CECECE",
"g 	c #CBCBCB",
"h 	c #C8C9C9",
"i 	c #C5C5C4",
"j 	c #C7C7C7",
"k 	c #BEC1C6",
"l 	c #989792",
"m 	c #D8C689",
"n 	c #D4BA68",
"o 	c #F1F1F1",
"p 	c #E7E7E7",
"q 	c #D4D4D4",
"r 	c #D2D2D2",
"s 	c #CFCFCF",
"t 	c #CDCDCD",
"u 	c #CACACA",
"v 	c #C5C5C5",
"w 	c #C2C2C2",
"x 	c #C0C0C0",
"y 	c #BDBDBD",
"z 	c #BABAB9",
"A 	c #B9B8B7",
"B 	c #B7B8B9",
"C 	c #A9A79E",
"D 	c #D9BF6E",
"E 	c #DFB53F",
"F 	c #B9BBBE",
"G 	c #DFDFDF",
"H 	c #CCCCCC",
"I 	c #C4C4C4",
"J 	c #C1C1C1",
"K 	c #BFBFBF",
"L 	c #BCBCBC",
"M 	c #B7B7B7",
"N 	c #B4B4B4",
"O 	c #B2B2B2",
"P 	c #ACACAC",
"Q 	c #AAABAE",
"R 	c #98999C",
"S 	c #C6A958",
"T 	c #D29910",
"U 	c #B9AD88",
"V 	c #DDDEE0",
"W 	c #E7E7E8",
"X 	c #E0DFDF",
"Y 	c #B8B8B8",
"Z 	c #B6B6B6",
"` 	c #B3B3B3",
" .	c #B1B1B1",
"..	c #AEAEAE",
"+.	c #ABABAB",
"@.	c #A9A9A9",
"#.	c #A6A6A6",
"$.	c #A4A4A4",
"%.	c #A1A1A0",
"&.	c #A1A1A1",
"*.	c #9397A0",
"=.	c #8F7749",
"-.	c #E7DBA7",
";.	c #FEE690",
">.	c #CDB573",
",.	c #CECFD3",
"'.	c #DCDDE0",
").	c #D6D5D5",
"!.	c #B0B0B0",
"~.	c #ADADAD",
"{.	c #AAAAAA",
"].	c #A8A8A8",
"^.	c #A5A5A5",
"/.	c #A3A3A3",
"(.	c #A0A0A0",
"_.	c #9D9D9D",
":.	c #9B9B9B",
"<.	c #989898",
"[.	c #959595",
"}.	c #959594",
"|.	c #909298",
"1.	c #6D6F72",
"2.	c #A19A7B",
"3.	c #E0CC88",
"4.	c #F4E4A0",
"5.	c #FFE488",
"6.	c #FFD960",
"7.	c #D5B150",
"8.	c #C7C4BD",
"9.	c #D0D0D1",
"0.	c #CBCACA",
"a.	c #A2A2A2",
"b.	c #9F9F9F",
"c.	c #9C9C9C",
"d.	c #9A9A9A",
"e.	c #979797",
"f.	c #929292",
"g.	c #909090",
"h.	c #8E8E8E",
"i.	c #8A8A8A",
"j.	c #898887",
"k.	c #878787",
"l.	c #81807D",
"m.	c #C4B480",
"n.	c #F0CD65",
"o.	c #F3E09C",
"p.	c #FFD55C",
"q.	c #FFD04E",
"r.	c #D9A01D",
"s.	c #A69471",
"t.	c #CED2D9",
"u.	c #C1C0C0",
"v.	c #A7A7A7",
"w.	c #999999",
"x.	c #969696",
"y.	c #949494",
"z.	c #919191",
"A.	c #8C8C8C",
"B.	c #848484",
"C.	c #808080",
"D.	c #818181",
"E.	c #7F7F7F",
"F.	c #7D7D7D",
"G.	c #7B7B7C",
"H.	c #65676D",
"I.	c #9A8A59",
"J.	c #EFBE3A",
"K.	c #B2820F",
"L.	c #F0DD99",
"M.	c #FFDB5B",
"N.	c #E2A10A",
"O.	c #6F583B",
"P.	c #B6B9C0",
"Q.	c #B6B3AA",
"R.	c #B2B1AE",
"S.	c #BCBDBF",
"T.	c #B6B6B4",
"U.	c #9E9E9E",
"V.	c #8B8B8B",
"W.	c #888888",
"X.	c #868686",
"Y.	c #666666",
"Z.	c #696969",
"`.	c #787878",
" +	c #767676",
".+	c #707070",
"++	c #6A6969",
"@+	c #878785",
"#+	c #B5B7BA",
"$+	c #E4AF34",
"%+	c #C18205",
"&+	c #F0DC98",
"*+	c #FFDB56",
"=+	c #CF9411",
"-+	c #A7A289",
";+	c #EBDA9C",
">+	c #D5BD71",
",+	c #A5A29B",
"'+	c #B0B2B7",
")+	c #ABABAA",
"!+	c #A8A8A9",
"~+	c #838383",
"{+	c #828282",
"]+	c #7B7B7B",
"^+	c #898989",
"/+	c #E6E5E5",
"(+	c #E6E7EA",
"_+	c #E9C662",
":+	c #CA9116",
"<+	c #D6C68A",
"[+	c #FDE594",
"}+	c #FFD553",
"|+	c #C2890E",
"1+	c #D3CEA0",
"2+	c #FFF0A7",
"3+	c #FFE47B",
"4+	c #DAB54B",
"5+	c #A29C8B",
"6+	c #A6A7AA",
"7+	c #A1A0A0",
"8+	c #797979",
"9+	c #747474",
"0+	c #727272",
"a+	c #6D6D6D",
"b+	c #BABABA",
"c+	c #DCDCDB",
"d+	c #D2D3D7",
"e+	c #E8CB6B",
"f+	c #DBA11F",
"g+	c #BD953B",
"h+	c #FEE488",
"i+	c #FFDC6E",
"j+	c #FFCF45",
"k+	c #B37D0D",
"l+	c #D0C8A0",
"m+	c #FFE896",
"n+	c #FBD362",
"o+	c #FFD74A",
"p+	c #C08F1E",
"q+	c #908F8E",
"r+	c #A0A1A0",
"s+	c #979695",
"t+	c #858585",
"u+	c #6E6E6E",
"v+	c #6B6B6B",
"w+	c #646464",
"x+	c #D7D7D7",
"y+	c #C6C6C6",
"z+	c #D2D1D0",
"A+	c #CACBD0",
"B+	c #B9A25A",
"C+	c #E4A924",
"D+	c #D9A632",
"E+	c #78540F",
"F+	c #C99525",
"G+	c #FECC48",
"H+	c #DB9F17",
"I+	c #CFC69B",
"J+	c #FFEA99",
"K+	c #FFCF43",
"L+	c #C48A0F",
"M+	c #6C5A40",
"N+	c #929394",
"O+	c #8A8A8C",
"P+	c #8B8C8F",
"Q+	c #8E8D8C",
"R+	c #7C7C7C",
"S+	c #636363",
"T+	c #606060",
"U+	c #6A6A6A",
"V+	c #88570A",
"W+	c #A47007",
"X+	c #CBC299",
"Y+	c #FFEA97",
"Z+	c #FBC73C",
"`+	c #A36C03",
" @	c #8B877A",
".@	c #C9BB8B",
"+@	c #9B906F",
"@@	c #7D7F86",
"#@	c #848382",
"$@	c #656565",
"%@	c #757575",
"&@	c #7E7E7E",
"*@	c #DCCE99",
"=@	c #FFED98",
"-@	c #F2BD37",
";@	c #E0D4A2",
">@	c #FFFAB1",
",@	c #F7DA75",
"'@	c #9B8856",
")@	c #71757D",
"!@	c #7A7A79",
"~@	c #5F5F5F",
"{@	c #686868",
"]@	c #939393",
"^@	c #E1C678",
"/@	c #FFE98D",
"(@	c #FFDF75",
"_@	c #E9B839",
":@	c #E1D7A7",
"<@	c #FFE48B",
"[@	c #FDDD76",
"}@	c #FFD64B",
"|@	c #9E8139",
"1@	c #6A6C72",
"2@	c #6B6A69",
"3@	c #545454",
"4@	c #5E5E5E",
"5@	c #737373",
"6@	c #BA8516",
"7@	c #F5CB56",
"8@	c #FFD243",
"9@	c #CB9217",
"0@	c #E0D6A6",
"a@	c #FFE584",
"b@	c #FECA40",
"c@	c #D8A126",
"d@	c #795C26",
"e@	c #68696C",
"f@	c #646463",
"g@	c #4B4B4B",
"h@	c #676767",
"i@	c #B07C10",
"j@	c #C28B13",
"k@	c #DED3A2",
"l@	c #FFE786",
"m@	c #F6BD2B",
"n@	c #955C00",
"o@	c #5C5B59",
"p@	c #424242",
"q@	c #494949",
"r@	c #4C4C4C",
"s@	c #434343",
"t@	c #FFE884",
"u@	c #ECB428",
"v@	c #484848",
"w@	c #343434",
"x@	c #2E2E2E",
"y@	c #E0D095",
"z@	c #FCE495",
"A@	c #FFE278",
"B@	c #E2AB27",
"C@	c #E2B74F",
"D@	c #FFE37B",
"E@	c #FFD851",
"F@	c #D1991C",
"G@	c #D9A52C",
"H@	c #DDA421",
"                                                                ",
"                                                                ",
"                                                                ",
"                                                                ",
"                      . + @ # $                                 ",
"                  % & * = - ; > , '                             ",
"            ) ! ~ { ] ^ & / ( _ : < [                           ",
"        } | 1 ] 2 3 / 4 | 5 6 7 8 9 0                           ",
"        = ~ 3 4 a b c d e f g h i j k l m n                     ",
"        o p 5 q r s t u j v w x y z A B C D E                   ",
"      F = ] G H % j I J K L } M N O ) P Q R S T                 ",
"      U V W X 5 w y . Y Z `  ...+.@.#.$.%.&.*.=.                ",
"    -.;.>.,.'.).f Y  .!.~.{.].^./.(._.:.<.[.}.|.1.2.3.          ",
"    4.5.6.7.8.9.0.v ) ^.^.a.b.c.d.e.[.f.g.h.i.j.k.l.m.n.        ",
"    o.p.q.r.s.t.i u.L v.d.w.x.y.z.h.A.i.B.C.D.E.F.G.H.I.J.K.    ",
"    L.M.N.O.P.Q.R.S.T.O U.h.h.V.W.X.B.F.Y.Z.`. +.+++@+#+$+%+    ",
"    &+*+=+  -+;+>+,+'+)+!+x.~+{+C.F.]+ +`.^+g.f.F.v./+(+_+:+    ",
"  <+[+}+|+  1+2+3+4+5+6+7+U.h.8+ +9+0+.+a+i.) b+j q c+d+e+f+    ",
"g+h+i+j+k+  l+m+n+o+p+q+r+s+y.t+u+v+Z.w+w+E.f x+y+J z+A+B+C+D+E+",
"  F+G+H+    I+J+K+L+M+N+O+P+Q+^+R+S+T+U+{+<.y ..) b+y+i     V+  ",
"    W+      X+Y+Z+`+   @.@+@@@#@E..+$@%@&@k.h.d.#. .x N         ",
"            *@=@-@    ;@>@,@'@)@!@.+~@{@0+F.W.]@U.a.<.          ",
"          ^@/@(@_@    :@<@[@}@|@1@2@3@4@Z.5@E.B.E.              ",
"          6@7@8@9@    0@a@b@c@d@e@f@g@3@T+h@$@                  ",
"            i@j@      k@l@m@n@  o@~@p@q@r@s@                    ",
"                      k@t@u@      v@w@x@                        ",
"                    y@z@A@B@                                    ",
"                    C@D@E@F@                                    ",
"                      G@H@                                      ",
"                                                                ",
"                                                                ",
"                                                                "
};
